<svg width="194" height="39" viewBox="0 0 194 39" fill="none" xmlns="http://www.w3.org/2000/svg">
<path d="M172.247 16.439H146.085C144.417 16.439 143.078 15.1002 143.078 13.4322C143.078 11.7642 144.417 10.4253 146.085 10.4253H172.247C173.915 10.4253 175.254 11.7642 175.254 13.4322C175.254 15.0783 173.915 16.439 172.247 16.439Z" fill="#6FCACF"/>
<path d="M190.046 20.4993H126.375C125.366 20.4993 124.444 20.8285 123.785 21.3772C123.127 21.9259 122.71 22.6721 122.71 23.5062C122.71 25.1742 124.356 26.5129 126.375 26.5129H131.226C133.245 26.5129 134.891 27.8518 134.891 29.5198C134.891 30.3539 134.474 31.1001 133.816 31.6488C133.157 32.1975 132.235 32.5267 131.226 32.5267H112.175C111.165 32.5267 110.244 32.856 109.585 33.4047C108.927 33.9533 108.51 34.6995 108.51 35.5335C108.51 37.2016 110.156 38.5404 112.175 38.5404H185.239C186.249 38.5404 187.171 38.2112 187.829 37.6625C188.488 37.1138 188.905 36.3675 188.905 35.5335C188.905 33.8655 187.258 32.5267 185.239 32.5267H176.394C174.375 32.5267 172.729 31.1879 172.729 29.5198C172.729 28.6858 173.146 27.9396 173.805 27.3909C174.463 26.8422 175.385 26.5129 176.394 26.5129H190.046C191.056 26.5129 191.977 26.1837 192.636 25.635C193.294 25.0863 193.711 24.3402 193.711 23.5062C193.711 21.8381 192.065 20.4993 190.046 20.4993ZM168.866 31.6488C168.208 32.1975 167.286 32.5267 166.276 32.5267H153.503C151.484 32.5267 149.837 31.1879 149.837 29.5198C149.837 28.6858 150.254 27.9396 150.913 27.3909C151.571 26.8422 152.493 26.5129 153.503 26.5129H166.276C168.296 26.5129 169.942 27.8518 169.942 29.5198C169.942 30.3539 169.547 31.1001 168.866 31.6488Z" fill="#6FCACF"/>
<path d="M97.8865 38.5403H90.3804C88.7124 38.5403 87.3516 37.1795 87.3516 35.5114C87.3516 33.8434 88.7124 32.4827 90.3804 32.4827H97.8865C99.5546 32.4827 100.915 33.8434 100.915 35.5114C100.937 37.1795 99.5765 38.5403 97.8865 38.5403Z" fill="#6FCACF"/>
<path d="M63.7361 16.439H37.5743C35.9062 16.439 34.5674 15.1002 34.5674 13.4322C34.5674 11.7642 35.9062 10.4253 37.5743 10.4253H63.7361C65.4042 10.4253 66.7429 11.7642 66.7429 13.4322C66.7429 15.0783 65.4042 16.439 63.7361 16.439Z" fill="#6FCACF"/>
<path d="M81.5362 20.4993H17.8656C16.856 20.4993 15.9341 20.8285 15.2757 21.3772C14.6173 21.9259 14.2003 22.6721 14.2003 23.5062C14.2003 25.1742 15.8464 26.5129 17.8656 26.5129H22.716C24.7352 26.5129 26.3813 27.8518 26.3813 29.5198C26.3813 30.3539 25.9643 31.1001 25.3059 31.6488C24.6475 32.1975 23.7256 32.5267 22.716 32.5267H3.66533C2.65573 32.5267 1.73396 32.856 1.07553 33.4047C0.417094 33.9533 0 34.6995 0 35.5335C0 37.2016 1.64613 38.5404 3.66533 38.5404H76.7296C77.7392 38.5404 78.6611 38.2112 79.3195 37.6625C79.9779 37.1138 80.3949 36.3675 80.3949 35.5335C80.3949 33.8655 78.7488 32.5267 76.7296 32.5267H67.8847C65.8655 32.5267 64.2193 31.1879 64.2193 29.5198C64.2193 28.6858 64.6363 27.9396 65.2948 27.3909C65.9532 26.8422 66.8751 26.5129 67.8847 26.5129H81.5362C82.5458 26.5129 83.4676 26.1837 84.1261 25.635C84.7845 25.0863 85.2015 24.3402 85.2015 23.5062C85.2015 21.8381 83.5554 20.4993 81.5362 20.4993ZM60.3785 31.6488C59.72 32.1975 58.7983 32.5267 57.7887 32.5267H45.015C42.9958 32.5267 41.3498 31.1879 41.3498 29.5198C41.3498 28.6858 41.7668 27.9396 42.4252 27.3909C43.0836 26.8422 44.0054 26.5129 45.015 26.5129H57.7887C59.8079 26.5129 61.4539 27.8518 61.4539 29.5198C61.4539 30.3539 61.0369 31.1001 60.3785 31.6488Z" fill="#6FCACF"/>
<path d="M100.938 0C100.696 0 100.499 0.19753 100.477 0.438956C100.258 5.59669 96.1094 9.74481 90.9517 9.96429C90.7102 9.96429 90.5127 10.1838 90.5127 10.4252C90.5127 10.6666 90.7102 10.8642 90.9517 10.8861C93.0367 10.9739 94.9461 11.6982 96.5044 12.8834C97.5799 13.6955 98.4797 14.705 99.1601 15.8902C99.9283 17.229 100.411 18.7873 100.477 20.4115C100.477 20.6529 100.696 20.8504 100.938 20.8504C101.179 20.8504 101.377 20.6529 101.399 20.4115C101.618 15.2537 105.766 11.1056 110.924 10.8861C111.166 10.8861 111.363 10.6666 111.363 10.4252C111.363 10.1838 111.166 9.98624 110.924 9.96429C109.344 9.89845 107.851 9.45955 106.535 8.71333C105.701 8.25242 104.932 7.65975 104.252 6.97936C102.584 5.26743 101.508 2.96293 101.399 0.416987C101.377 0.175561 101.179 0 100.938 0Z" fill="#6FCACF"/>
</svg>
